mtllib frequency_module.mtl
o Radar
v -0.000819 -0.003430 -0.002291
v -0.080981 -0.061191 -0.207461
v -0.000819 -0.003430 -0.230013
v -0.145267 -0.107511 -0.144273
v -0.180942 -0.133218 -0.052964
v -0.180942 -0.133218 0.048381
v -0.145267 -0.107511 0.139691
v -0.080981 -0.061191 0.202879
v -0.000819 -0.003430 0.225430
v 0.079344 0.054331 0.202879
v 0.143629 0.100652 0.139691
v 0.179305 0.126358 0.048381
v 0.179305 0.126358 -0.052964
v 0.143629 0.100652 -0.144273
v 0.079344 0.054331 -0.207461
v -0.250131 -0.131041 -0.223091
v -0.419775 -0.163533 -0.101236
v -0.350114 -0.113339 -0.279528
v -0.250131 -0.131041 0.218508
v -0.224589 -0.022892 0.398327
v -0.350114 -0.113339 0.274945
v 0.099166 0.120644 0.316773
v 0.199138 0.192679 0.218508
v 0.088464 0.202678 0.398327
v 0.254618 0.232655 -0.081094
v 0.213989 0.293125 -0.279528
v 0.283650 0.343319 -0.101236
v -0.150159 -0.059007 -0.321356
v -0.224589 -0.022892 -0.402910
v -0.305611 -0.171017 0.076511
v -0.419775 -0.163533 0.096653
v -0.025497 0.030819 0.351844
v -0.068062 0.089893 0.442362
v 0.254618 0.232655 0.076511
v 0.283650 0.343319 0.096653
v 0.099166 0.120644 -0.321356
v -0.068062 0.089893 -0.446944
v 0.088464 0.202678 -0.402910
v -0.305611 -0.171017 -0.081094
v -0.150159 -0.059007 0.316773
v 0.213989 0.293125 0.274945
v 0.199138 0.192679 -0.223091
v -0.025496 0.030819 -0.356427
v 0.213989 0.293125 -0.279528
v -0.068062 0.089893 -0.446944
v -0.350114 -0.113339 -0.279528
v -0.350114 -0.113339 0.274945
v 0.088464 0.202678 0.398327
v 0.283650 0.343319 -0.101236
v -0.224589 -0.022892 -0.402910
v -0.419775 -0.163533 0.096653
v -0.068062 0.089893 0.442362
v 0.283650 0.343319 0.096653
v 0.088464 0.202678 -0.402910
v -0.419775 -0.163533 -0.101236
v -0.224589 -0.022892 0.398327
v 0.213989 0.293125 0.274945
v -0.311241 0.044272 -0.467362
v -0.537828 -0.118995 0.112572
v 0.052177 0.306132 0.462779
v -0.129532 0.175202 0.513898
v 0.278764 0.469400 -0.117154
v 0.278764 0.469400 0.112572
v -0.129532 0.175202 -0.518481
v 0.052177 0.306132 -0.467362
v -0.537828 -0.118995 -0.117154
v -0.311241 0.044272 0.462779
v 0.197896 0.411130 0.319547
v 0.197896 0.411130 -0.324130
v -0.456960 -0.060726 -0.324130
v -0.456960 -0.060726 0.319547
v -0.008930 0.007827 -0.002291
v 0.071233 0.065588 -0.207461
v -0.008930 0.007827 -0.230013
v 0.135518 0.111909 -0.144273
v 0.171194 0.137615 -0.052964
v 0.171194 0.137615 0.048381
v 0.135518 0.111909 0.139691
v 0.071233 0.065588 0.202879
v -0.008930 0.007827 0.225430
v -0.089092 -0.049934 0.202879
v -0.153377 -0.096255 0.139691
v -0.189053 -0.121961 0.048381
v -0.189053 -0.121961 -0.052964
v -0.153377 -0.096255 -0.144273
v -0.089092 -0.049934 -0.207461
v 0.191027 0.203935 -0.223091
v 0.275539 0.354576 -0.101236
v 0.205878 0.304381 -0.279528
v 0.191027 0.203935 0.218508
v 0.080354 0.213935 0.398327
v 0.205878 0.304381 0.274945
v -0.158270 -0.047750 0.316773
v -0.358224 -0.102083 0.274945
v -0.232700 -0.011636 0.398327
v -0.313722 -0.159761 -0.081094
v -0.358224 -0.102083 -0.279528
v -0.427885 -0.152277 -0.101236
v 0.091055 0.131901 -0.321356
v 0.080354 0.213934 -0.402910
v 0.246507 0.243911 0.076511
v 0.275539 0.354576 0.096653
v -0.033607 0.042075 0.351844
v -0.076173 0.101149 0.442362
v -0.313722 -0.159761 0.076511
v -0.427885 -0.152277 0.096653
v -0.158270 -0.047750 -0.321356
v -0.033607 0.042075 -0.356427
v -0.232700 -0.011636 -0.402910
v 0.246507 0.243911 -0.081094
v 0.091055 0.131901 0.316773
v -0.258242 -0.119785 0.218508
v -0.258242 -0.119785 -0.223091
v -0.076173 0.101149 -0.446945
v -0.358224 -0.102083 -0.279528
v -0.076173 0.101149 -0.446945
v 0.205878 0.304381 -0.279528
v 0.205878 0.304381 0.274945
v -0.232700 -0.011636 0.398327
v -0.427885 -0.152277 -0.101236
v 0.080354 0.213934 -0.402910
v 0.275539 0.354576 0.096653
v -0.076173 0.101149 0.442362
v -0.427885 -0.152277 0.096653
v -0.232700 -0.011636 -0.402910
v 0.275539 0.354576 -0.101236
v 0.080354 0.213935 0.398327
v -0.358224 -0.102083 0.274945
v 0.044066 0.317389 -0.467362
v 0.270653 0.480656 0.112571
v -0.137643 0.186459 0.513898
v -0.545939 -0.107739 -0.117154
v -0.545939 -0.107739 0.112572
v -0.137643 0.186459 -0.518481
v -0.319351 0.055529 -0.467362
v 0.270653 0.480656 -0.117154
v 0.044066 0.317389 0.462779
v -0.465071 -0.049469 0.319547
v -0.465071 -0.049469 -0.324130
v 0.189785 0.422387 -0.324130
v 0.189785 0.422387 0.319547
v -0.319352 0.055529 0.462779
vt 0.020689 0.395883
vt 0.353442 0.395883
vt 0.353442 0.728636
vn 0.584600 -0.811300 -0.000000
vn -0.014300 -0.961000 -0.276100
vn 0.129000 -0.857800 0.497600
vn 0.772900 -0.393800 0.497600
vn 0.916100 -0.290600 -0.276100
vn 0.129000 -0.857800 -0.497600
vn -0.014300 -0.961000 0.276100
vn 0.565800 -0.543000 0.620500
vn 0.967300 -0.253800 0.000000
vn 0.565800 -0.543000 -0.620500
vn -0.065400 -0.997900 -0.000000
vn 0.336000 -0.708600 0.620500
vn 0.916100 -0.290600 0.276100
vn 0.772900 -0.393800 -0.497600
vn 0.336000 -0.708600 -0.620500
vn 0.611600 -0.725400 0.315900
vn 0.316200 -0.938200 0.140600
vn 0.389100 -0.885700 -0.253300
vn 0.789900 -0.596900 -0.140600
vn 0.717000 -0.649400 0.253300
vn 0.389100 -0.885700 0.253300
vn 0.316200 -0.938200 -0.140600
vn 0.494600 -0.809700 -0.315900
vn 0.717000 -0.649400 -0.253300
vn 0.789900 -0.596900 0.140600
vn 0.494600 -0.809700 0.315900
vn 0.290200 -0.957000 -0.000000
vn 0.611600 -0.725400 -0.315900
vn 0.816000 -0.578100 -0.000000
vn 0.000000 0.000000 1.000000
vn -0.098400 -0.752200 -0.651500
vn -0.286000 -0.887400 0.361600
vn 0.473600 -0.340000 0.812500
vn 0.999200 0.038700 0.000000
vn 0.473600 -0.340000 -0.812500
vn -0.353000 -0.935600 -0.000000
vn 0.172700 -0.556900 0.812500
vn 0.932300 -0.009500 0.361600
vn 0.744700 -0.144700 -0.651500
vn 0.172700 -0.556900 -0.812500
vn -0.286000 -0.887400 -0.361600
vn -0.098400 -0.752200 0.651500
vn 0.744700 -0.144700 0.651500
vn 0.932300 -0.009500 -0.361600
vn -0.584600 0.811300 0.000000
vn -0.916100 0.290600 0.276100
vn -0.772900 0.393800 -0.497600
vn -0.129000 0.857800 -0.497600
vn 0.014300 0.961000 0.276100
vn -0.772900 0.393800 0.497600
vn -0.916100 0.290600 -0.276100
vn -0.336000 0.708600 -0.620500
vn 0.065400 0.997900 0.000000
vn -0.336000 0.708600 0.620500
vn -0.967300 0.253800 0.000000
vn -0.565800 0.543000 -0.620500
vn 0.014300 0.961000 -0.276100
vn -0.129000 0.857800 0.497600
vn -0.565800 0.543000 0.620500
vn -0.494600 0.809700 -0.315900
vn -0.789900 0.596900 -0.140600
vn -0.717000 0.649400 0.253300
vn -0.316200 0.938200 0.140600
vn -0.389100 0.885700 -0.253300
vn -0.717000 0.649400 -0.253300
vn -0.789900 0.596900 0.140600
vn -0.611600 0.725400 0.315900
vn -0.389100 0.885700 0.253300
vn -0.316200 0.938200 -0.140600
vn -0.611600 0.725400 -0.315900
vn -0.816000 0.578100 0.000000
vn -0.494600 0.809700 0.315900
vn -0.290200 0.957000 0.000000
vn -0.744700 0.144700 0.651500
vn -0.932300 0.009500 -0.361600
vn -0.172700 0.556900 -0.812500
vn 0.353000 0.935600 0.000000
vn -0.172700 0.556900 0.812500
vn -0.999200 -0.038700 -0.000000
vn -0.473600 0.340000 -0.812500
vn 0.286000 0.887400 -0.361600
vn 0.098400 0.752200 0.651500
vn -0.473600 0.340000 0.812500
vn -0.932300 0.009500 0.361600
vn -0.744700 0.144700 -0.651500
vn 0.098400 0.752200 -0.651500
vn 0.286000 0.887400 0.361600
vn 0.180500 0.130100 -0.974900
vn 0.505900 0.364500 -0.781800
vn 0.731000 0.526700 -0.433900
vn 0.811300 0.584600 0.000000
vn 0.730900 0.526800 0.433900
vn 0.505900 0.364500 0.781800
vn 0.180500 0.130100 0.974900
vn -0.180500 -0.130100 0.974900
vn -0.505900 -0.364500 0.781800
vn -0.731000 -0.526700 0.433900
vn -0.811300 -0.584600 -0.000000
vn -0.731000 -0.526700 -0.433900
vn -0.505900 -0.364500 -0.781800
vn -0.180500 -0.130100 -0.974900
vn 0.473600 -0.340100 -0.812500
vn 0.731000 0.526700 0.433900
usemtl FrequencyModule
f 1/1/1 2/2/1 3/3/1
f 1/1/1 4/2/1 2/3/1
f 1/1/1 5/2/1 4/3/1
f 1/1/1 6/2/1 5/3/1
f 1/1/1 7/2/1 6/3/1
f 1/1/1 8/2/1 7/3/1
f 1/1/1 9/2/1 8/3/1
f 1/1/1 10/2/1 9/3/1
f 1/1/1 11/2/1 10/3/1
f 1/1/1 12/2/1 11/3/1
f 1/1/1 13/2/1 12/3/1
f 1/1/1 14/2/1 13/3/1
f 1/1/1 15/2/1 14/3/1
f 1/1/1 3/2/1 15/3/1
f 16/1/2 17/2/2 18/3/2
f 19/1/3 20/2/3 21/3/3
f 22/1/4 23/2/4 24/3/4
f 25/1/5 26/2/5 27/3/5
f 28/1/6 16/2/6 29/3/6
f 30/1/7 19/2/7 31/3/7
f 32/1/8 22/2/8 33/3/8
f 34/1/9 27/2/9 35/3/9
f 36/1/10 37/2/10 38/3/10
f 39/1/11 31/2/11 17/3/11
f 40/1/12 32/2/12 20/3/12
f 23/1/13 34/2/13 41/3/13
f 42/1/14 36/2/14 26/3/14
f 43/1/15 28/2/15 37/3/15
f 9/1/16 10/2/16 32/3/16
f 6/1/17 7/2/17 30/3/17
f 2/1/18 4/2/18 28/3/18
f 13/1/19 42/2/19 25/3/19
f 10/1/20 11/2/20 22/3/20
f 7/1/21 8/2/21 19/3/21
f 4/1/22 5/2/22 16/3/22
f 3/1/23 2/2/23 43/3/23
f 14/1/24 36/2/24 42/3/24
f 11/1/25 34/2/25 23/3/25
f 8/1/26 9/2/26 40/3/26
f 5/1/27 30/2/27 39/3/27
f 15/1/28 3/2/28 36/3/28
f 12/1/29 13/2/29 34/3/29
f 26/1/30 44/2/30 38/3/30
f 37/1/30 45/2/30 29/3/30
f 18/1/30 46/2/30 17/3/30
f 21/1/30 47/2/30 20/3/30
f 24/1/30 48/2/30 41/3/30
f 27/1/30 49/2/30 26/3/30
f 29/1/30 50/2/30 18/3/30
f 31/1/30 51/2/30 21/3/30
f 33/1/30 52/2/30 24/3/30
f 35/1/30 53/2/30 27/3/30
f 38/1/30 54/2/30 37/3/30
f 17/1/30 55/2/30 31/3/30
f 20/1/30 56/2/30 33/3/30
f 41/1/30 57/2/30 35/3/30
f 50/1/31 46/2/31 58/3/31
f 51/1/32 47/2/32 59/3/32
f 52/1/33 60/2/33 61/3/33
f 53/1/34 62/2/34 63/3/34
f 54/1/35 64/2/35 65/3/35
f 55/1/36 51/2/36 66/3/36
f 56/1/37 52/2/37 67/3/37
f 57/1/38 63/2/38 68/3/38
f 44/1/39 65/2/39 69/3/39
f 45/1/40 50/2/40 64/3/40
f 46/1/41 66/2/41 70/3/41
f 47/1/42 67/2/42 71/3/42
f 48/1/43 57/2/43 60/3/43
f 49/1/44 69/2/44 62/3/44
f 72/1/45 73/2/45 74/3/45
f 72/1/45 75/2/45 73/3/45
f 72/1/45 76/2/45 75/3/45
f 72/1/45 77/2/45 76/3/45
f 72/1/45 78/2/45 77/3/45
f 72/1/45 79/2/45 78/3/45
f 72/1/45 80/2/45 79/3/45
f 72/1/45 81/2/45 80/3/45
f 72/1/45 82/2/45 81/3/45
f 72/1/45 83/2/45 82/3/45
f 72/1/45 84/2/45 83/3/45
f 72/1/45 85/2/45 84/3/45
f 72/1/45 86/2/45 85/3/45
f 72/1/45 74/2/45 86/3/45
f 87/1/46 88/2/46 89/3/46
f 90/1/47 91/2/47 92/3/47
f 93/1/48 94/2/48 95/3/48
f 96/1/49 97/2/49 98/3/49
f 99/1/50 89/2/50 100/3/50
f 101/1/51 92/2/51 102/3/51
f 103/1/52 95/2/52 104/3/52
f 105/1/53 98/2/53 106/3/53
f 107/1/54 108/2/54 109/3/54
f 110/1/55 102/2/55 88/3/55
f 111/1/56 103/2/56 91/3/56
f 112/1/57 106/2/57 94/3/57
f 113/1/58 109/2/58 97/3/58
f 108/1/59 99/2/59 114/3/59
f 80/1/60 81/2/60 103/3/60
f 77/1/61 90/2/61 101/3/61
f 73/1/62 75/2/62 99/3/62
f 84/1/63 113/2/63 96/3/63
f 81/1/64 82/2/64 93/3/64
f 78/1/65 111/2/65 90/3/65
f 75/1/66 76/2/66 87/3/66
f 74/1/67 99/2/67 108/3/67
f 85/1/68 107/2/68 113/3/68
f 82/1/69 105/2/69 112/3/69
f 79/1/70 80/2/70 111/3/70
f 76/1/71 77/2/71 110/3/71
f 86/1/72 108/2/72 107/3/72
f 83/1/73 84/2/73 105/3/73
f 97/1/30 109/2/30 115/3/30
f 114/1/30 100/2/30 116/3/30
f 89/1/30 88/2/30 117/3/30
f 92/1/30 91/2/30 118/3/30
f 95/1/30 94/2/30 119/3/30
f 98/1/30 97/2/30 120/3/30
f 100/1/30 89/2/30 121/3/30
f 102/1/30 92/2/30 122/3/30
f 104/1/30 95/2/30 123/3/30
f 106/1/30 98/2/30 124/3/30
f 109/1/30 114/2/30 125/3/30
f 88/1/30 102/2/30 126/3/30
f 91/1/30 104/2/30 127/3/30
f 94/1/30 106/2/30 128/3/30
f 121/1/74 117/2/74 129/3/74
f 122/1/75 118/2/75 130/3/75
f 123/1/76 119/2/76 131/3/76
f 124/1/77 132/2/77 133/3/77
f 125/1/78 134/2/78 135/3/78
f 126/1/79 130/2/79 136/3/79
f 127/1/80 131/2/80 137/3/80
f 128/1/81 124/2/81 138/3/81
f 115/1/82 135/2/82 139/3/82
f 116/1/83 121/2/83 134/3/83
f 117/1/84 136/2/84 140/3/84
f 118/1/85 127/2/85 141/3/85
f 119/1/86 128/2/86 142/3/86
f 120/1/87 115/2/87 132/3/87
f 134/1/88 65/2/88 64/3/88
f 129/1/89 140/2/89 65/3/89
f 140/1/90 62/2/90 69/3/90
f 136/1/91 130/2/91 62/3/91
f 130/1/92 141/2/92 63/3/92
f 141/1/93 137/2/93 68/3/93
f 137/1/94 131/2/94 60/3/94
f 131/1/95 142/2/95 61/3/95
f 142/1/96 138/2/96 67/3/96
f 138/1/97 59/2/97 71/3/97
f 133/1/98 66/2/98 59/3/98
f 132/1/99 70/2/99 66/3/99
f 139/1/100 58/2/100 70/3/100
f 135/1/101 64/2/101 58/3/101
f 32/1/16 10/2/16 22/3/16
f 131/1/76 119/2/76 142/3/76
f 141/1/85 127/2/85 137/3/85
f 33/1/8 22/2/8 24/3/8
f 43/1/23 2/2/23 28/3/23
f 31/1/7 19/2/7 21/3/7
f 138/1/81 124/2/81 133/3/81
f 142/1/86 128/2/86 138/3/86
f 39/1/2 17/2/2 16/3/2
f 40/1/3 20/2/3 19/3/3
f 42/1/5 26/2/5 25/3/5
f 22/1/20 11/2/20 23/3/20
f 66/1/36 51/2/36 59/3/36
f 25/1/9 27/2/9 34/3/9
f 43/1/10 37/2/10 36/3/10
f 30/1/11 31/2/11 39/3/11
f 103/1/60 81/2/60 93/3/60
f 110/1/71 77/2/71 101/3/71
f 37/1/15 28/2/15 29/3/15
f 67/1/96 138/2/96 71/3/96
f 19/1/21 8/2/21 40/3/21
f 30/1/17 7/2/17 19/3/17
f 14/1/19 42/2/19 13/3/19
f 40/1/26 9/2/26 32/3/26
f 65/1/89 140/2/89 69/3/89
f 132/1/87 115/2/87 139/3/87
f 15/1/24 36/2/24 14/3/24
f 12/1/25 34/2/25 11/3/25
f 26/1/14 36/2/14 38/3/14
f 6/1/27 30/2/27 5/3/27
f 105/1/73 84/2/73 96/3/73
f 38/1/30 44/2/30 54/3/30
f 29/1/30 45/2/30 50/3/30
f 17/1/30 46/2/30 55/3/30
f 20/1/30 47/2/30 56/3/30
f 41/1/30 48/2/30 57/3/30
f 26/1/30 49/2/30 44/3/30
f 18/1/30 50/2/30 46/3/30
f 21/1/30 51/2/30 47/3/30
f 24/1/30 52/2/30 48/3/30
f 27/1/30 53/2/30 49/3/30
f 37/1/30 54/2/30 45/3/30
f 31/1/30 55/2/30 51/3/30
f 33/1/30 56/2/30 52/3/30
f 35/1/30 57/2/30 53/3/30
f 58/1/31 46/2/31 70/3/31
f 41/1/13 34/2/13 35/3/13
f 48/1/33 60/2/33 52/3/33
f 49/1/34 62/2/34 53/3/34
f 45/1/102 64/2/102 54/3/102
f 130/1/75 118/2/75 141/3/75
f 91/1/56 103/2/56 104/3/56
f 53/1/38 63/2/38 57/3/38
f 54/1/39 65/2/39 44/3/39
f 64/1/40 50/2/40 58/3/40
f 55/1/41 66/2/41 46/3/41
f 56/1/42 67/2/42 47/3/42
f 60/1/43 57/2/43 68/3/43
f 44/1/44 69/2/44 49/3/44
f 110/1/46 88/2/46 87/3/46
f 111/1/47 91/2/47 90/3/47
f 112/1/48 94/2/48 93/3/48
f 113/1/49 97/2/49 96/3/49
f 87/1/50 89/2/50 99/3/50
f 90/1/51 92/2/51 101/3/51
f 93/1/52 95/2/52 103/3/52
f 96/1/53 98/2/53 105/3/53
f 101/1/55 102/2/55 110/3/55
f 20/1/12 32/2/12 33/3/12
f 105/1/57 106/2/57 112/3/57
f 107/1/58 109/2/58 113/3/58
f 114/1/59 99/2/59 100/3/59
f 111/1/70 80/2/70 103/3/70
f 78/1/61 90/2/61 77/3/61
f 85/1/63 113/2/63 84/3/63
f 93/1/64 82/2/64 112/3/64
f 79/1/65 111/2/65 78/3/65
f 28/1/18 4/2/18 16/3/18
f 73/1/67 99/2/67 74/3/67
f 86/1/68 107/2/68 85/3/68
f 83/1/69 105/2/69 82/3/69
f 87/1/66 76/2/66 110/3/66
f 99/1/62 75/2/62 87/3/62
f 74/1/72 108/2/72 86/3/72
f 16/1/22 5/2/22 39/3/22
f 115/1/30 109/2/30 125/3/30
f 116/1/30 100/2/30 121/3/30
f 117/1/30 88/2/30 126/3/30
f 118/1/30 91/2/30 127/3/30
f 119/1/30 94/2/30 128/3/30
f 120/1/30 97/2/30 115/3/30
f 121/1/30 89/2/30 117/3/30
f 122/1/30 92/2/30 118/3/30
f 123/1/30 95/2/30 119/3/30
f 124/1/30 98/2/30 120/3/30
f 125/1/30 114/2/30 116/3/30
f 126/1/30 102/2/30 122/3/30
f 127/1/30 104/2/30 123/3/30
f 128/1/30 106/2/30 124/3/30
f 129/1/74 117/2/74 140/3/74
f 120/1/77 132/2/77 124/3/77
f 116/1/78 134/2/78 125/3/78
f 122/1/79 130/2/79 126/3/79
f 123/1/80 131/2/80 127/3/80
f 29/1/6 16/2/6 18/3/6
f 125/1/82 135/2/82 115/3/82
f 134/1/83 121/2/83 129/3/83
f 126/1/84 136/2/84 117/3/84
f 67/1/37 52/2/37 61/3/37
f 129/1/88 65/2/88 134/3/88
f 36/1/28 3/2/28 43/3/28
f 136/1/90 62/2/90 140/3/90
f 34/1/29 13/2/29 25/3/29
f 63/1/103 141/2/103 68/3/103
f 68/1/93 137/2/93 60/3/93
f 60/1/94 131/2/94 61/3/94
f 61/1/95 142/2/95 67/3/95
f 59/1/32 47/2/32 71/3/32
f 133/1/97 59/2/97 138/3/97
f 132/1/98 66/2/98 133/3/98
f 139/1/99 70/2/99 132/3/99
f 135/1/100 58/2/100 139/3/100
f 134/1/101 64/2/101 135/3/101
f 62/1/91 130/2/91 63/3/91
f 109/1/54 108/2/54 114/3/54
f 24/1/4 23/2/4 41/3/4
